<svg width="50" height="50" viewBox="0 0 50 50" fill="none" xmlns="http://www.w3.org/2000/svg">
<path d="M6.25 12.5H10.4167H43.75" stroke="white" stroke-width="2" stroke-linecap="round" stroke-linejoin="round"/>
<path d="M16.6667 12.5V8.33334C16.6667 7.22827 17.1057 6.16846 17.8871 5.38706C18.6685 4.60566 19.7283 4.16667 20.8334 4.16667H29.1667C30.2718 4.16667 31.3316 4.60566 32.113 5.38706C32.8944 6.16846 33.3334 7.22827 33.3334 8.33334V12.5M39.5834 12.5V41.6667C39.5834 42.7717 39.1444 43.8316 38.363 44.613C37.5816 45.3944 36.5218 45.8333 35.4167 45.8333H14.5834C13.4783 45.8333 12.4185 45.3944 11.6371 44.613C10.8557 43.8316 10.4167 42.7717 10.4167 41.6667V12.5H39.5834Z" stroke="white" stroke-width="2" stroke-linecap="round" stroke-linejoin="round"/>
<path d="M20.8333 22.9167V35.4167" stroke="white" stroke-width="2" stroke-linecap="round" stroke-linejoin="round"/>
<path d="M29.1667 22.9167V35.4167" stroke="white" stroke-width="2" stroke-linecap="round" stroke-linejoin="round"/>
</svg>
